<?xml version="1.0" encoding="UTF-8"?>
<svg id="uuid-af90a80d-44cb-43b9-aa5c-0704bc6f4d1b" data-name="Layer 1" xmlns="http://www.w3.org/2000/svg" viewBox="0 0 442.67 72.28">
  <defs>
    <style>
      .uuid-7f6136b5-9dc8-422a-a818-28e38dff2bd3 {
        fill-rule: evenodd;
      }

      .uuid-7f6136b5-9dc8-422a-a818-28e38dff2bd3, .uuid-8014a589-0d04-4507-8167-90d4f1986f49 {
        fill: #fff;
      }
    </style>
  </defs>
  <path class="uuid-7f6136b5-9dc8-422a-a818-28e38dff2bd3" d="M49.85,37.58c0,5.03,0,10.06,0,15.1h5.02v-5.02h5.02v-5.02h5.02v-5.05h-15.07ZM62.42,17.52l-12.56,10.05h35.17c0,3.35,0,6.7,0,10.06-1.68,0-3.36,0-5.04-.01v5.02h-5.02v5.02h-5.02v5.02h15.04v1.78c.01,1.07.03,2.13.04,3.2v5.08c3.35-4.19,6.7-8.37,10.05-12.56V17.52h-32.65Z"/>
  <path class="uuid-8014a589-0d04-4507-8167-90d4f1986f49" d="M207.34,38.42v15.72h-8.98v-4.49h-4.49v-4.49h-4.49v-4.49h-4.49v13.48h-8.98v-31.44h8.98v4.49h4.49v4.49h4.49v4.49h4.49v-13.48h8.98v15.72Z"/>
  <path class="uuid-8014a589-0d04-4507-8167-90d4f1986f49" d="M139.96,38.47v-15.7h31.4v2.24c0,2.26,0,4.51,0,6.77h-22.42c0,1.48,0,2.96,0,4.44h17.94v4.49h-17.94v4.49c1.68,0,3.36.02,5.04.03h8.11c3.11,0,6.22,0,9.32,0-.02,2.24-.03,4.47-.05,6.71v2.24h-31.4v-15.7Z"/>
  <path class="uuid-8014a589-0d04-4507-8167-90d4f1986f49" d="M119.74,54.13h-15.66v-8.95h4.47v-4.47h4.47v-4.47h4.47v-4.47h-13.42v-8.95h31.32v8.95h-4.47v4.47h-4.47v4.47h-4.47v4.47h13.42v8.95h-15.66Z"/>
  <path class="uuid-8014a589-0d04-4507-8167-90d4f1986f49" d="M321.18,38.41v-15.75h9v4.5h4.5v4.5h4.5v4.5h4.5v-13.5h9v31.5h-9v-4.5h-4.5v-4.5h-4.5v-4.5h-4.5v13.5h-9v-15.75Z"/>
  <polygon class="uuid-8014a589-0d04-4507-8167-90d4f1986f49" points="240.49 39.13 238.29 39.13 238.29 36.93 238.29 34.73 229.51 34.73 220.72 34.73 220.72 30.34 220.72 28.96 225.08 28.96 229.47 28.96 229.47 31.16 229.47 33.36 233.86 33.36 238.26 33.36 238.26 31.16 238.26 30.34 238.29 30.34 238.29 28.14 238.29 25.95 236.1 25.95 233.9 25.95 233.9 23.75 233.9 21.55 225.11 21.55 216.33 21.55 216.33 23.75 216.33 24.57 216.29 24.57 216.29 25.95 214.13 25.95 211.93 25.95 211.93 28.96 211.9 28.96 211.9 33.36 211.9 37.75 214.09 37.75 216.29 37.75 216.29 39.95 216.29 42.14 225.08 42.14 233.86 42.14 233.86 46.54 233.86 47.92 227.31 47.92 220.72 47.92 220.72 45.72 220.72 43.52 216.33 43.52 211.93 43.52 211.93 45.72 211.93 46.54 211.9 46.54 211.9 48.73 211.9 50.93 214.09 50.93 216.29 50.93 216.29 53.13 216.29 55.32 227.27 55.32 238.26 55.32 238.26 53.13 238.26 52.31 238.29 52.31 238.29 50.93 240.45 50.93 242.65 50.93 242.65 47.92 242.69 47.92 242.69 43.52 242.69 39.13 240.49 39.13"/>
  <polygon class="uuid-8014a589-0d04-4507-8167-90d4f1986f49" points="278.34 26.47 276.32 26.47 276.32 25.42 276.32 23.24 275.94 23.24 275.94 21.68 266.37 21.68 256.79 21.68 256.79 24.08 256.79 26.47 254.39 26.47 252 26.47 252 28.87 252 31.26 249.6 31.26 247.21 31.26 247.21 38.44 247.21 45.63 249.6 45.63 252 45.63 252 48.02 252 50.42 254.39 50.42 256.79 50.42 256.79 52.81 256.79 55.21 266.37 55.21 275.94 55.21 275.94 53.7 276.32 53.7 276.32 51.53 276.32 50.42 278.34 50.42 280.73 50.42 280.73 48.02 280.73 45.63 280.67 45.63 280.67 45 276.32 45 271.97 45 271.97 45.63 271.15 45.63 271.15 48.02 271.15 49.35 267.62 49.35 263.26 49.35 263.26 47.17 263.26 45 261.09 45 258.91 45 258.91 38.47 258.91 31.94 261.09 31.94 263.26 31.94 263.26 29.77 263.26 27.59 267.62 27.59 271.15 27.59 271.15 28.87 271.15 31.26 271.97 31.26 271.97 31.94 276.32 31.94 280.67 31.94 280.67 31.26 280.73 31.26 280.73 28.87 280.73 26.47 278.34 26.47"/>
  <path class="uuid-8014a589-0d04-4507-8167-90d4f1986f49" d="M285.22,38.49v-15.7h31.4v2.24c0,2.26,0,4.51,0,6.77h-22.42c0,1.48,0,2.96,0,4.44h17.94v4.49h-17.94v4.49c1.68,0,3.36.02,5.04.03h8.11c3.11,0,6.22,0,9.32,0-.02,2.24-.03,4.47-.05,6.71v2.24h-31.4v-15.7Z"/>
  <path class="uuid-8014a589-0d04-4507-8167-90d4f1986f49" d="M390.01,31.63h-2.25v-4.5h-4.5v-4.5h-22.5v.03h-3.52v31.5h22.5v-.03h3.52v-4.47h.98v-.03h3.52v-4.47h.98v-.03h3.52v-13.5h-2.25ZM377.48,45.16h-2.25v4.47h-5.48v-22.47h5.48v4.5h4.5v13.47h-.98v.03h-1.27Z"/>
</svg>