<?xml version="1.0" encoding="UTF-8"?>
<svg id="Layer_1" data-name="Layer 1" xmlns="http://www.w3.org/2000/svg" viewBox="0 0 500 103.58">
  <defs>
    <style>
      .cls-1 {
        fill-rule: evenodd;
      }

      .cls-1, .cls-2 {
        fill: #fff;
      }
    </style>
  </defs>
  <path class="cls-1" d="M23.29,48.35c0,6.8,0,13.59,0,20.39h6.78v-6.78h6.78v-6.78h6.78v-6.83h-20.36ZM40.26,21.25l-16.96,13.57h47.5c0,4.53,0,9.06,0,13.58-2.27,0-4.53-.01-6.8-.02v6.78h-6.78v6.78h-6.78v6.78h20.32v2.4c.02,1.44.03,2.88.05,4.32v6.86c4.52-5.65,9.05-11.31,13.57-16.96V21.25h-44.11Z"/>
  <g>
    <path class="cls-2" d="M101.6,64.5l24.16-27.94h-24.16v-6.97h34.33v6.97l-24.05,27.82h24.05v7.03h-34.33v-6.91Z"/>
    <path class="cls-2" d="M148.82,43.42c0-2.59.24-4.77.73-6.53.48-1.76,1.27-3.18,2.35-4.27,1.08-1.08,2.51-1.86,4.27-2.32,1.76-.46,3.92-.7,6.48-.7h18.99v6.97h-20.04c-1.82,0-3.1.37-3.83,1.1-.74.74-1.1,2.01-1.1,3.83v5.29h18.01v6.85h-18.01v5.87c0,1.82.37,3.1,1.1,3.83.73.74,2.01,1.1,3.83,1.1h20.04v6.97h-18.99c-2.56,0-4.71-.23-6.48-.7-1.76-.46-3.19-1.24-4.27-2.32-1.08-1.08-1.87-2.51-2.35-4.27-.48-1.76-.73-3.94-.73-6.53v-14.17Z"/>
    <path class="cls-2" d="M195.52,29.59h8.13l21.14,29.33v-29.33h7.84v41.82h-8.13l-21.14-29.33v29.33h-7.84V29.59Z"/>
    <path class="cls-2" d="M248.44,64.44h21.14c1.59,0,2.73-.35,3.43-1.05.7-.7,1.05-1.72,1.05-3.08v-2.32c0-1.63-.35-2.79-1.05-3.48-.7-.7-1.84-1.05-3.43-1.05h-9.53c-2.48,0-4.57-.22-6.27-.67-1.7-.44-3.09-1.15-4.15-2.12-1.07-.97-1.83-2.19-2.29-3.66-.46-1.47-.7-3.23-.7-5.29v-.35c0-2.09.23-3.87.7-5.34.46-1.47,1.23-2.69,2.29-3.66,1.06-.97,2.45-1.67,4.15-2.12,1.7-.44,3.79-.67,6.27-.67h19.4v6.97h-20.5c-2.98,0-4.47,1.34-4.47,4.01v1.92c0,2.71,1.49,4.07,4.47,4.07h9.58c2.48,0,4.57.23,6.27.7,1.7.46,3.09,1.19,4.15,2.18,1.06.99,1.83,2.28,2.29,3.86.46,1.59.7,3.48.7,5.69v.64c0,2.05-.23,3.82-.7,5.31-.46,1.49-1.23,2.71-2.29,3.66-1.07.95-2.45,1.66-4.15,2.12-1.7.46-3.8.7-6.27.7h-20.1v-6.97Z"/>
    <path class="cls-2" d="M295.49,43.42c0-2.59.24-4.77.73-6.53.48-1.76,1.27-3.18,2.35-4.27,1.08-1.08,2.51-1.86,4.27-2.32,1.76-.46,3.92-.7,6.48-.7h18.59v6.97h-19.63c-1.82,0-3.1.37-3.83,1.1-.74.74-1.1,2.01-1.1,3.83v18.01c0,1.82.37,3.1,1.1,3.83.73.74,2.01,1.1,3.83,1.1h19.63v6.97h-18.59c-2.56,0-4.71-.23-6.48-.7-1.76-.46-3.19-1.24-4.27-2.32-1.08-1.08-1.87-2.51-2.35-4.27-.48-1.76-.73-3.94-.73-6.53v-14.17Z"/>
    <path class="cls-2" d="M341.03,43.42c0-2.59.24-4.77.73-6.53.48-1.76,1.27-3.18,2.35-4.27,1.08-1.08,2.51-1.86,4.27-2.32,1.76-.46,3.92-.7,6.48-.7h18.99v6.97h-20.04c-1.82,0-3.1.37-3.83,1.1-.74.74-1.1,2.01-1.1,3.83v5.29h18.01v6.85h-18.01v5.87c0,1.82.37,3.1,1.1,3.83.73.74,2.01,1.1,3.83,1.1h20.04v6.97h-18.99c-2.56,0-4.71-.23-6.48-.7-1.76-.46-3.19-1.24-4.27-2.32-1.08-1.08-1.87-2.51-2.35-4.27-.48-1.76-.73-3.94-.73-6.53v-14.17Z"/>
    <path class="cls-2" d="M387.73,29.59h8.13l21.14,29.33v-29.33h7.84v41.82h-8.13l-21.14-29.33v29.33h-7.84V29.59Z"/>
    <path class="cls-2" d="M440.93,29.59h21.96c2.56,0,4.71.23,6.48.7,1.76.46,3.18,1.24,4.27,2.32,1.08,1.08,1.87,2.51,2.35,4.27.48,1.76.73,3.94.73,6.53v14.17c0,2.59-.24,4.77-.73,6.53-.48,1.76-1.27,3.19-2.35,4.27-1.08,1.08-2.51,1.86-4.27,2.32-1.76.46-3.92.7-6.48.7h-21.96V29.59ZM463.93,64.44c1.82,0,3.1-.37,3.83-1.1.74-.73,1.1-2.01,1.1-3.83v-18.01c0-1.82-.37-3.1-1.1-3.83-.74-.74-2.01-1.1-3.83-1.1h-15.16v27.88h15.16Z"/>
  </g>
</svg>