<?xml version="1.0" encoding="UTF-8"?>
<svg id="uuid-d9c98010-6d4d-43e8-b30e-39b1837459ee" data-name="Layer 1" xmlns="http://www.w3.org/2000/svg" viewBox="0 0 439.55 74.45">
  <defs>
    <style>
      .uuid-29fc9cfa-e6e5-451b-afe3-9c2f9cb434ab {
        fill-rule: evenodd;
      }
    </style>
  </defs>
  <path class="uuid-29fc9cfa-e6e5-451b-afe3-9c2f9cb434ab" d="M52.03,37.54c0,5.03,0,10.06,0,15.1h5.02v-5.02h5.02v-5.02h5.02v-5.05h-15.07ZM64.59,17.47l-12.56,10.05h35.17c0,3.35,0,6.7,0,10.06-1.68,0-3.36,0-5.04-.01v5.02h-5.02v5.02h-5.02v5.02h15.04v1.78c.01,1.07.03,2.13.04,3.2v5.08c3.35-4.19,6.7-8.37,10.05-12.56V17.47h-32.65Z"/>
  <path d="M209.51,38.38v15.72h-8.98v-4.49h-4.49v-4.49h-4.49v-4.49h-4.49v13.48h-8.98v-31.44h8.98v4.49h4.49v4.49h4.49v4.49h4.49v-13.48h8.98v15.72Z"/>
  <path d="M142.13,38.43v-15.7h31.4v2.24c0,2.26,0,4.51,0,6.77h-22.42c0,1.48,0,2.96,0,4.44h17.94v4.49h-17.94v4.49c1.68,0,3.36.02,5.04.03h8.11c3.11,0,6.22,0,9.32,0-.02,2.24-.03,4.47-.05,6.71v2.24h-31.4v-15.7Z"/>
  <path d="M121.91,54.08h-15.66v-8.95h4.47v-4.47h4.47v-4.47h4.47v-4.47h-13.42v-8.95h31.32v8.95h-4.47v4.47h-4.47v4.47h-4.47v4.47h13.42v8.95h-15.66Z"/>
  <path d="M323.35,38.37v-15.75h9v4.5h4.5v4.5h4.5v4.5h4.5v-13.5h9v31.5h-9v-4.5h-4.5v-4.5h-4.5v-4.5h-4.5v13.5h-9v-15.75Z"/>
  <polygon points="242.66 39.08 240.47 39.08 240.47 36.89 240.47 34.69 231.68 34.69 222.89 34.69 222.89 30.3 222.89 28.92 227.25 28.92 231.64 28.92 231.64 31.11 231.64 33.31 236.04 33.31 240.43 33.31 240.43 31.11 240.43 30.3 240.47 30.3 240.47 28.1 240.47 25.9 238.27 25.9 236.07 25.9 236.07 23.71 236.07 21.51 227.29 21.51 218.5 21.51 218.5 23.71 218.5 24.52 218.46 24.52 218.46 25.9 216.3 25.9 214.1 25.9 214.1 28.92 214.07 28.92 214.07 33.31 214.07 37.7 216.26 37.7 218.46 37.7 218.46 39.9 218.46 42.1 227.25 42.1 236.04 42.1 236.04 46.49 236.04 47.87 229.48 47.87 222.89 47.87 222.89 45.67 222.89 43.48 218.5 43.48 214.1 43.48 214.1 45.67 214.1 46.49 214.07 46.49 214.07 48.69 214.07 50.89 216.26 50.89 218.46 50.89 218.46 53.08 218.46 55.28 229.45 55.28 240.43 55.28 240.43 53.08 240.43 52.26 240.47 52.26 240.47 50.89 242.63 50.89 244.82 50.89 244.82 47.87 244.86 47.87 244.86 43.48 244.86 39.08 242.66 39.08"/>
  <polygon points="280.51 26.43 278.49 26.43 278.49 25.37 278.49 23.2 278.12 23.2 278.12 21.64 268.54 21.64 258.96 21.64 258.96 24.03 258.96 26.43 256.56 26.43 254.17 26.43 254.17 28.82 254.17 31.22 251.78 31.22 249.38 31.22 249.38 38.4 249.38 45.58 251.78 45.58 254.17 45.58 254.17 47.98 254.17 50.37 256.56 50.37 258.96 50.37 258.96 52.77 258.96 55.16 268.54 55.16 278.12 55.16 278.12 53.66 278.49 53.66 278.49 51.48 278.49 50.37 280.51 50.37 282.91 50.37 282.91 47.98 282.91 45.58 282.84 45.58 282.84 44.95 278.49 44.95 274.14 44.95 274.14 45.58 273.33 45.58 273.33 47.98 273.33 49.31 269.79 49.31 265.44 49.31 265.44 47.13 265.44 44.95 263.26 44.95 261.08 44.95 261.08 38.43 261.08 31.9 263.26 31.9 265.44 31.9 265.44 29.72 265.44 27.55 269.79 27.55 273.33 27.55 273.33 28.82 273.33 31.22 274.14 31.22 274.14 31.9 278.49 31.9 282.84 31.9 282.84 31.22 282.91 31.22 282.91 28.82 282.91 26.43 280.51 26.43"/>
  <path d="M287.39,38.45v-15.7h31.4v2.24c0,2.26,0,4.51,0,6.77h-22.42c0,1.48,0,2.96,0,4.44h17.94v4.49h-17.94v4.49c1.68,0,3.36.02,5.04.03h8.11c3.11,0,6.22,0,9.32,0-.02,2.24-.03,4.47-.05,6.71v2.24h-31.4v-15.7Z"/>
  <path d="M392.18,31.59h-2.25v-4.5h-4.5v-4.5h-22.5v.03h-3.52v31.5h22.5v-.03h3.52v-4.47h.98v-.03h3.52v-4.47h.98v-.03h3.52v-13.5h-2.25ZM379.65,45.12h-2.25v4.47h-5.48v-22.47h5.48v4.5h4.5v13.47h-.98v.03h-1.27Z"/>
</svg>